PathFileType	4	(X/Y/Z)	E:\Qualisys_Data\Carbon_Farble_Plate\Data\Amateur_Runner\S14\T1\S14T1V23_c3d.trc
DataRate	CameraRate	NumFrames	NumMarkers	Units	OrigDataRate	OrigDataStartFrame	OrigNumFrames
200.000000	200.000000	5	39	mm	200.000000	77	308
Frame#	Time	LSHO			RSHO			LICST			RICST			LASIS			LHEEL			RASIS			LTROC			RTROC			SACR			LTH1			LSK4			LTH2			LTH3			RHM5			LSK2			LTH4			RTH1			LTOE			RTH2			RTH3			RTH4			LLEP			RLEP			LSK1			LSK3			RSK1			LHM5			RSK2			LFT1			RSK3			RSK4			LLME			RLME			RTOE			RHEEL			RFT1			RFT2			LFT2			
		X1	Y1	Z1	X2	Y2	Z2	X3	Y3	Z3	X4	Y4	Z4	X5	Y5	Z5	X6	Y6	Z6	X7	Y7	Z7	X8	Y8	Z8	X9	Y9	Z9	X10	Y10	Z10	X11	Y11	Z11	X12	Y12	Z12	X13	Y13	Z13	X14	Y14	Z14	X15	Y15	Z15	X16	Y16	Z16	X17	Y17	Z17	X18	Y18	Z18	X19	Y19	Z19	X20	Y20	Z20	X21	Y21	Z21	X22	Y22	Z22	X23	Y23	Z23	X24	Y24	Z24	X25	Y25	Z25	X26	Y26	Z26	X27	Y27	Z27	X28	Y28	Z28	X29	Y29	Z29	X30	Y30	Z30	X31	Y31	Z31	X32	Y32	Z32	X33	Y33	Z33	X34	Y34	Z34	X35	Y35	Z35	X36	Y36	Z36	X37	Y37	Z37	X38	Y38	Z38	X39	Y39	Z39	

78	0.385	-1460.870361328125	1468.873168945312	-473.641845703125	-1342.828125	1464.515625	-201.7728576660156	-1441.093505859375	1013.809265136719	-441.4596862792969	-1395.03564453125	1019.471435546875	-172.2662963867188	-1400.93896484375	962.232177734375	-412.9556579589844	-1266.5029296875	107.7122802734375	-300.1170654296875	-1378.428955078125	972.2997436523438	-187.8915863037109	-1534.66162109375	893.5811767578125	-454.131591796875	-1536.679565429688	952.9424438476562	-130.969970703125	-1557.501220703125	1029.2353515625	-300.3582763671875	-1373.050415039062	686.1983032226562	-461.95849609375	-1323.547241210938	322.8120422363281	-387.7289123535156	-1436.285766601562	660.1185302734375	-421.9061584472656	-1318.346801757812	607.4309692382812	-430.9408874511719	-2063.948974609375	282.657958984375	-145.4049987792969	-1344.517822265625	417.639404296875	-406.1169128417969	-1388.1845703125	577.6503295898438	-401.5831298828125	-1500.772216796875	681.9776611328125	-136.4934234619141	-1032.345336914062	196.7374267578125	-371.1853942871094	-1569.112182617188	716.359375	-121.7751922607422	-1542.631958007812	592.616455078125	-156.7428131103516	-1617.730590820312	627.6630859375	-138.8736877441406	-1313.234619140625	538.164794921875	-413.6462707519531	-1636.666137695312	556.6716918945312	-146.3003997802734	-1264.084716796875	434.362060546875	-414.2162780761719	-1245.378295898438	336.4093627929688	-400.09619140625	-1733.948120117188	476.5961608886719	-138.3932037353516	-1093.808227539062	146.4260711669922	-416.7938232421875	-1770.254028320312	555.9304809570312	-141.3653411865234	-1242.656127929688	94.75537872314452	-278.0508117675781	-1831.649780273438	441.9160461425781	-152.8937225341797	-1857.177612304688	517.2072143554688	-153.6135711669922	-1233.196166992188	152.912109375	-369.4318237304688	-2008.147216796875	422.4336853027344	-169.9194183349609	-2043.309936523438	209.7783966064453	-204.1574249267578	-2029.07275390625	470.636474609375	-225.7942352294922	-2058.61474609375	452.5251159667969	-259.8229064941406	-2057.51806640625	468.7049255371094	-201.9158325195312	-1257.19287109375	80.48680877685547	-327.1336059570312
79	0.39	-1440.2734375	1464.543579101562	-475.0220642089844	-1322.517211914062	1461.515380859375	-202.8328704833984	-1421.401611328125	1010.7626953125	-441.2308654785156	-1374.997680664062	1017.116516113281	-171.9187164306641	-1380.9072265625	959.900146484375	-413.2964172363281	-1248.408813476562	103.9485626220703	-298.7378234863281	-1356.857177734375	969.8114624023438	-187.6123809814453	-1514.539184570312	890.1935424804688	-453.3330383300781	-1515.432739257812	949.1944580078124	-130.0574188232422	-1537.234252929688	1026.001342773438	-300.28076171875	-1355.610595703125	682.3031005859375	-462.1251831054688	-1304.243041992188	318.1805114746094	-386.0115966796875	-1418.048217773438	656.9379272460938	-420.6876525878906	-1299.646850585938	603.4215087890625	-430.3070373535156	-2045.294555664062	290.081787109375	-146.1060028076172	-1326.433227539062	413.9844360351562	-405.3541870117188	-1369.262573242188	576.037353515625	-398.4686279296875	-1477.856079101562	678.240966796875	-136.2961273193359	-1014.973937988281	193.1419067382812	-371.714111328125	-1546.460083007812	711.9312133789062	-121.6871185302734	-1519.057739257812	588.3734130859375	-156.4903564453125	-1594.132202148438	622.9583129882812	-138.39453125	-1295.618408203125	534.0867919921875	-412.9922485351562	-1612.639892578125	552.2903442382812	-145.7796783447266	-1246.345825195312	430.3279418945312	-413.3754577636719	-1226.525390625	331.9469909667969	-399.0800476074219	-1710.454711914062	474.6819763183594	-137.7156066894531	-1076.836059570312	142.6180572509766	-416.5950317382812	-1744.998901367188	554.7904663085938	-140.6334075927734	-1223.654541015625	90.94192504882812	-276.2916870117188	-1810.111450195312	442.0909729003906	-153.4912414550781	-1833.520385742188	518.3532104492188	-154.4297790527344	-1215.679443359375	148.9318695068359	-368.2793579101562	-1985.618041992188	429.1744384765625	-170.2520141601562	-2026.684936523438	217.1319732666016	-205.6275939941406	-2006.0908203125	476.810791015625	-227.0889434814453	-2036.171020507812	459.4810485839844	-261.3468933105469	-2034.048706054688	475.9615173339844	-202.9600219726562	-1239.12939453125	76.75344848632812	-325.6936645507812
80	0.395	-1419.666870117188	1459.70703125	-476.8251953125	-1302.167114257812	1458.418701171875	-204.1936645507812	-1401.86083984375	1007.862915039062	-441.3570251464844	-1355.015014648438	1013.845581054688	-172.2430725097656	-1360.6396484375	956.967041015625	-412.9837951660156	-1231.359741210938	99.80843353271484	-296.6967163085938	-1336.343994140625	966.955810546875	-187.5699157714844	-1494.9130859375	887.2301025390625	-453.3924560546875	-1494.308837890625	945.816650390625	-128.9895782470703	-1517.577514648438	1022.549194335938	-299.611083984375	-1337.084594726562	678.1755981445312	-461.1430358886719	-1287.676391601562	314.2146911621094	-385.8285217285156	-1399.984619140625	653.9502563476562	-419.7234802246094	-1281.372680664062	599.2410278320312	-429.5662536621094	-2025.805419921875	296.9754028320312	-146.8589935302734	-1308.5751953125	410.082763671875	-404.4273376464844	-1351.654541015625	572.2325439453125	-397.4513854980469	-1454.324340820312	674.613037109375	-136.2238006591797	-998.2985229492188	188.389892578125	-371.7882385253906	-1523.667724609375	707.5182495117188	-121.7051696777344	-1494.700805664062	584.263427734375	-155.4568176269531	-1570.486694335938	617.816650390625	-138.2238159179688	-1277.0712890625	530.3805541992188	-412.4598999023438	-1587.684326171875	547.1641235351562	-144.8204498291016	-1228.4658203125	426.2494201660156	-412.9055480957031	-1210.110107421875	327.8760681152344	-399.1395568847656	-1687.125854492188	472.0888061523438	-137.2788696289062	-1061.047973632812	138.1570129394531	-416.4653625488281	-1719.4345703125	552.6962280273438	-140.4142761230469	-1207.038696289062	86.55315399169922	-274.4575805664062	-1788.074951171875	442.0070495605469	-153.3530120849609	-1809.1953125	519.5079345703125	-154.8558807373047	-1198.720703125	144.5071411132812	-366.8324279785156	-1962.783813476562	434.8708190917969	-171.6544189453125	-2008.51123046875	223.8992919921875	-206.1270599365234	-1982.607299804688	482.7090148925781	-228.4311981201172	-2012.44091796875	466.0404663085938	-261.85205078125	-2010.8349609375	483.5408325195312	-204.2367553710938	-1222.589599609375	72.33489990234375	-324.3579711914062
81	0.4	-1399.212524414062	1454.818603515625	-478.5058288574219	-1281.86767578125	1454.913818359375	-204.9216003417969	-1383.280029296875	1005.097961425781	-441.2395324707031	-1334.303466796875	1010.161437988281	-172.1092834472656	-1341.548095703125	953.9448852539062	-413.7690124511719	-1216.330932617188	95.29963684082033	-294.7762756347656	-1315.7861328125	964.0863037109376	-188.1490783691406	-1475.41650390625	883.57470703125	-453.00537109375	-1473.408935546875	941.6119995117188	-127.9172058105469	-1497.810546875	1018.702209472656	-299.0680847167969	-1318.033325195312	674.6287231445312	-460.2003784179688	-1271.236694335938	310.0717468261719	-385.2362365722656	-1379.60009765625	649.8604125976562	-418.3130798339844	-1262.714477539062	595.786865234375	-429.1268615722656	-2005.1474609375	303.8908996582031	-148.4974060058594	-1291.079223632812	405.8291320800781	-403.5147399902344	-1332.264770507812	567.8890991210938	-397.0361328125	-1430.900756835938	670.3543090820312	-136.3934173583984	-983.31005859375	182.7943420410156	-371.2558898925781	-1500.463134765625	702.6568603515625	-120.8784637451172	-1469.822021484375	579.1500854492188	-155.3679809570312	-1546.051879882812	612.2119750976562	-137.2399597167969	-1258.772094726562	526.2720947265625	-411.9677429199219	-1561.577880859375	541.9292602539062	-143.9530792236328	-1210.583618164062	421.999755859375	-412.0744323730469	-1192.255981445312	322.8762817382812	-396.6913452148438	-1664.917236328125	468.9508361816406	-138.9666290283203	-1046.192626953125	132.5179901123047	-415.5086669921875	-1692.98828125	550.5370483398438	-139.4766998291016	-1192.105102539062	81.61228942871094	-273.2824096679688	-1765.004638671875	441.6694946289062	-154.5374145507812	-1784.038696289062	519.836669921875	-154.9535980224609	-1183.623168945312	139.6802825927734	-365.5008544921875	-1940.368530273438	439.8694152832031	-172.9584655761719	-1989.938720703125	230.2105712890625	-207.1756744384766	-1957.265380859375	489.4602661132812	-229.0845947265625	-1988.733276367188	473.0804748535156	-263.4595947265625	-1986.60595703125	490.0291442871094	-205.4115905761719	-1207.969848632812	67.77326202392578	-322.8328552246094
82	0.405	-1378.193237304688	1449.639892578125	-480.1259155273438	-1261.867797851562	1451.176879882812	-205.93310546875	-1363.1865234375	1001.47802734375	-441.3085632324219	-1314.870483398438	1007.319641113281	-172.2532653808594	-1322.571166992188	950.7161865234376	-414.4051208496094	-1203.0732421875	90.5381088256836	-293.4770812988281	-1295.49755859375	960.447265625	-188.3172607421875	-1456.33984375	880.148681640625	-452.6083068847656	-1452.47265625	937.0647583007812	-126.3285522460938	-1477.721557617188	1014.782653808594	-298.1884155273438	-1297.861083984375	670.7933959960938	-459.1234436035156	-1255.993408203125	306.1068420410156	-384.8963012695312	-1361.585571289062	647.2922973632812	-418.2117919921875	-1243.637451171875	591.6746826171875	-427.6819152832031	-1984.93408203125	310.7282104492188	-149.4256591796875	-1273.640869140625	401.9250183105469	-403.4859008789062	-1313.487182617188	564.3590087890625	-396.5772399902344	-1406.881469726562	666.362060546875	-135.8854827880859	-969.4535522460938	176.4691162109375	-370.0055236816406	-1477.2744140625	697.056396484375	-120.9073638916016	-1444.8427734375	574.2005004882812	-154.5532531738281	-1521.264038085938	606.1865234375	-136.6734313964844	-1239.985473632812	522.2482299804688	-411.3785095214844	-1536.377075195312	536.077880859375	-142.5140075683594	-1193.15869140625	416.6592407226562	-411.1282348632812	-1175.2587890625	317.9478454589844	-395.6255798339844	-1640.690795898438	466.4485473632812	-138.5669250488281	-1032.280395507812	126.6251831054688	-413.6718444824219	-1665.94873046875	547.1312866210938	-137.7087554931641	-1178.620727539062	77.27928161621094	-271.8599548339844	-1740.21728515625	441.3428039550781	-153.9777679443359	-1757.287719726562	519.5514526367188	-154.4616088867188	-1170.110717773438	134.9252777099609	-364.4455261230469	-1915.7900390625	444.9366760253906	-173.73046875	-1969.918823242188	236.6214447021484	-208.2222595214844	-1932.495849609375	494.9832763671875	-230.447265625	-1963.481811523438	478.7611389160156	-264.6385498046875	-1961.79931640625	495.8461303710938	-206.8609313964844	-1194.552001953125	62.45322418212891	-321.2976989746094
